<mxfile host="app.diagrams.net" modified="2023-09-15T14:01:14.997Z" agent="Mozilla/5.0 (Windows NT 10.0; Win64; x64) AppleWebKit/537.36 (KHTML, like Gecko) Chrome/116.0.0.0 Safari/537.36" etag="xwJMZU4akhiyg447LWJU" version="21.7.5" type="device">
  <diagram name="Страница — 1" id="esZC-d3aMTyOhEdb9xKd">
    <mxGraphModel dx="1706" dy="1086" grid="1" gridSize="10" guides="1" tooltips="1" connect="1" arrows="1" fold="1" page="1" pageScale="1" pageWidth="827" pageHeight="1169" math="0" shadow="0">
      <root>
        <mxCell id="0" />
        <mxCell id="1" parent="0" />
        <mxCell id="V9ZHDpIh0amxCk4FevtN-1" value="" style="rounded=1;whiteSpace=wrap;html=1;glass=1;movable=1;resizable=1;rotatable=1;deletable=1;editable=1;locked=0;connectable=1;" parent="1" vertex="1">
          <mxGeometry x="130" y="40" width="150" height="90" as="geometry" />
        </mxCell>
        <mxCell id="z8B7d5LmaUyhtkTotOKu-1" value="Поставщик" style="text;html=1;strokeColor=none;fillColor=none;align=center;verticalAlign=middle;whiteSpace=wrap;rounded=0;fontSize=12;fontFamily=Helvetica;fontColor=default;movable=1;resizable=1;rotatable=1;deletable=1;editable=1;locked=0;connectable=1;" vertex="1" parent="1">
          <mxGeometry x="175" y="70" width="60" height="30" as="geometry" />
        </mxCell>
        <mxCell id="z8B7d5LmaUyhtkTotOKu-10" value="" style="rounded=1;whiteSpace=wrap;html=1;glass=1;movable=1;resizable=1;rotatable=1;deletable=1;editable=1;locked=0;connectable=1;" vertex="1" parent="1">
          <mxGeometry x="540" y="270" width="150" height="90" as="geometry" />
        </mxCell>
        <mxCell id="z8B7d5LmaUyhtkTotOKu-11" value="Клиент" style="text;html=1;strokeColor=none;fillColor=none;align=center;verticalAlign=middle;whiteSpace=wrap;rounded=0;fontSize=12;fontFamily=Helvetica;fontColor=default;movable=1;resizable=1;rotatable=1;deletable=1;editable=1;locked=0;connectable=1;" vertex="1" parent="1">
          <mxGeometry x="585" y="300" width="60" height="30" as="geometry" />
        </mxCell>
        <mxCell id="z8B7d5LmaUyhtkTotOKu-12" value="" style="rounded=1;whiteSpace=wrap;html=1;glass=1;movable=1;resizable=1;rotatable=1;deletable=1;editable=1;locked=0;connectable=1;" vertex="1" parent="1">
          <mxGeometry x="130" y="520" width="150" height="90" as="geometry" />
        </mxCell>
        <mxCell id="z8B7d5LmaUyhtkTotOKu-13" value="Модель" style="text;html=1;strokeColor=none;fillColor=none;align=center;verticalAlign=middle;whiteSpace=wrap;rounded=0;fontSize=12;fontFamily=Helvetica;fontColor=default;movable=1;resizable=1;rotatable=1;deletable=1;editable=1;locked=0;connectable=1;" vertex="1" parent="1">
          <mxGeometry x="175" y="550" width="60" height="30" as="geometry" />
        </mxCell>
        <mxCell id="z8B7d5LmaUyhtkTotOKu-14" value="" style="rounded=1;whiteSpace=wrap;html=1;glass=1;movable=1;resizable=1;rotatable=1;deletable=1;editable=1;locked=0;connectable=1;" vertex="1" parent="1">
          <mxGeometry x="540" y="40" width="150" height="90" as="geometry" />
        </mxCell>
        <mxCell id="z8B7d5LmaUyhtkTotOKu-15" value="Прейскурант цен" style="text;html=1;strokeColor=none;fillColor=none;align=center;verticalAlign=middle;whiteSpace=wrap;rounded=0;fontSize=12;fontFamily=Helvetica;fontColor=default;movable=1;resizable=1;rotatable=1;deletable=1;editable=1;locked=0;connectable=1;" vertex="1" parent="1">
          <mxGeometry x="585" y="70" width="60" height="30" as="geometry" />
        </mxCell>
        <mxCell id="z8B7d5LmaUyhtkTotOKu-16" value="" style="rhombus;whiteSpace=wrap;html=1;rounded=1;strokeColor=default;fontFamily=Helvetica;fontSize=12;fontColor=default;fillColor=default;" vertex="1" parent="1">
          <mxGeometry x="130" y="300" width="150" height="80" as="geometry" />
        </mxCell>
        <mxCell id="z8B7d5LmaUyhtkTotOKu-17" value="предлагает" style="text;html=1;strokeColor=none;fillColor=none;align=center;verticalAlign=middle;whiteSpace=wrap;rounded=0;fontSize=12;fontFamily=Helvetica;fontColor=default;movable=1;resizable=1;rotatable=1;deletable=1;editable=1;locked=0;connectable=1;" vertex="1" parent="1">
          <mxGeometry x="175" y="325" width="60" height="30" as="geometry" />
        </mxCell>
        <mxCell id="z8B7d5LmaUyhtkTotOKu-18" value="" style="endArrow=none;html=1;rounded=0;fontFamily=Helvetica;fontSize=12;fontColor=default;entryX=0.5;entryY=0;entryDx=0;entryDy=0;exitX=0.5;exitY=1;exitDx=0;exitDy=0;" edge="1" parent="1" source="V9ZHDpIh0amxCk4FevtN-1" target="z8B7d5LmaUyhtkTotOKu-16">
          <mxGeometry width="50" height="50" relative="1" as="geometry">
            <mxPoint x="280" y="550" as="sourcePoint" />
            <mxPoint x="330" y="500" as="targetPoint" />
          </mxGeometry>
        </mxCell>
        <mxCell id="z8B7d5LmaUyhtkTotOKu-19" value="" style="endArrow=none;html=1;rounded=0;fontFamily=Helvetica;fontSize=12;fontColor=default;entryX=0.5;entryY=1;entryDx=0;entryDy=0;exitX=0.5;exitY=0;exitDx=0;exitDy=0;" edge="1" parent="1" source="z8B7d5LmaUyhtkTotOKu-12" target="z8B7d5LmaUyhtkTotOKu-16">
          <mxGeometry width="50" height="50" relative="1" as="geometry">
            <mxPoint x="290" y="560" as="sourcePoint" />
            <mxPoint x="340" y="510" as="targetPoint" />
          </mxGeometry>
        </mxCell>
      </root>
    </mxGraphModel>
  </diagram>
</mxfile>
